<mxfile host="app.diagrams.net" modified="2023-12-21T14:18:25.475Z" agent="Mozilla/5.0 (Windows NT 10.0; Win64; x64) AppleWebKit/537.36 (KHTML, like Gecko) Chrome/120.0.0.0 Safari/537.36" etag="nemuVkfx98PeiCqorL6H" version="22.1.11" type="github">
  <diagram name="第 1 页" id="t_0k2NAwMPY0LR-K0Ouk">
    <mxGraphModel dx="1481" dy="793" grid="0" gridSize="10" guides="1" tooltips="1" connect="1" arrows="1" fold="1" page="0" pageScale="1" pageWidth="827" pageHeight="1169" math="0" shadow="0">
      <root>
        <mxCell id="0" />
        <mxCell id="1" parent="0" />
        <mxCell id="D74BTjwERHzlvlWHR8W4-18" value="" style="whiteSpace=wrap;html=1;shape=mxgraph.basic.document;fillColor=#b2e6f4;strokeColor=#66B2FF;" vertex="1" parent="1">
          <mxGeometry x="429" y="258" width="444" height="458" as="geometry" />
        </mxCell>
        <mxCell id="D74BTjwERHzlvlWHR8W4-8" value="&lt;font face=&quot;宋体&quot; style=&quot;font-size: 18px;&quot;&gt;消费者对AI的认知和期待&lt;/font&gt;" style="rounded=1;whiteSpace=wrap;html=1;strokeColor=none;fillColor=#1ec8f3;fontStyle=1;fontColor=#FFFFFF;" vertex="1" parent="1">
          <mxGeometry x="455" y="281" width="220" height="45" as="geometry" />
        </mxCell>
        <mxCell id="D74BTjwERHzlvlWHR8W4-10" value="&lt;font style=&quot;font-size: 18px;&quot; face=&quot;宋体&quot;&gt;数字化生活方式的适应&lt;/font&gt;" style="rounded=1;whiteSpace=wrap;html=1;strokeColor=none;fillColor=#1ec8f3;fontStyle=1;fontColor=#FFFFFF;" vertex="1" parent="1">
          <mxGeometry x="455" y="423" width="220" height="45" as="geometry" />
        </mxCell>
        <mxCell id="D74BTjwERHzlvlWHR8W4-12" value="&lt;font style=&quot;font-size: 18px;&quot; face=&quot;宋体&quot;&gt;用户对AI技术的接受度&lt;/font&gt;" style="rounded=1;whiteSpace=wrap;html=1;strokeColor=none;fillColor=#1ec8f3;fontStyle=1;fontColor=#FFFFFF;" vertex="1" parent="1">
          <mxGeometry x="455" y="579" width="220" height="45" as="geometry" />
        </mxCell>
        <mxCell id="D74BTjwERHzlvlWHR8W4-13" value="" style="group" vertex="1" connectable="0" parent="1">
          <mxGeometry x="265" y="402" width="136.5" height="136.5" as="geometry" />
        </mxCell>
        <mxCell id="D74BTjwERHzlvlWHR8W4-2" value="" style="ellipse;whiteSpace=wrap;html=1;aspect=fixed;strokeWidth=19;strokeColor=#b2e6f4;" vertex="1" parent="D74BTjwERHzlvlWHR8W4-13">
          <mxGeometry width="136.5" height="136.5" as="geometry" />
        </mxCell>
        <mxCell id="D74BTjwERHzlvlWHR8W4-1" value="&lt;font style=&quot;font-size: 20px;&quot;&gt;大模型赋能智能座舱&lt;/font&gt;" style="ellipse;whiteSpace=wrap;html=1;aspect=fixed;strokeWidth=3;strokeColor=#29caf3;fontFamily=宋体;fontStyle=1;fontColor=#61d8f6;" vertex="1" parent="D74BTjwERHzlvlWHR8W4-13">
          <mxGeometry x="6.75" y="6.75" width="123" height="123" as="geometry" />
        </mxCell>
        <mxCell id="D74BTjwERHzlvlWHR8W4-14" value="&lt;p style=&quot;line-height: 140%;&quot;&gt;&lt;font style=&quot;font-size: 16px;&quot; face=&quot;宋体&quot;&gt;随着大型机器学习模型（如GPT、BERT等）的出现，社会对智能座舱内置的高级AI功能的期待也在增长。&lt;/font&gt;&lt;/p&gt;" style="text;html=1;strokeColor=none;fillColor=none;align=left;verticalAlign=middle;whiteSpace=wrap;rounded=0;" vertex="1" parent="1">
          <mxGeometry x="455" y="326" width="386" height="53" as="geometry" />
        </mxCell>
        <mxCell id="D74BTjwERHzlvlWHR8W4-15" value="&lt;p style=&quot;line-height: 140%;&quot;&gt;&lt;font face=&quot;宋体&quot; style=&quot;font-size: 16px;&quot;&gt;大模型赋能的智能座舱将进一步推动汽车从传统的交通工具转变为集交通、娱乐、信息处理等多功能于一身的智能平台。&lt;/font&gt;&lt;/p&gt;" style="text;html=1;strokeColor=none;fillColor=none;align=left;verticalAlign=middle;whiteSpace=wrap;rounded=0;" vertex="1" parent="1">
          <mxGeometry x="455" y="478" width="392" height="58" as="geometry" />
        </mxCell>
        <mxCell id="D74BTjwERHzlvlWHR8W4-16" value="&lt;p style=&quot;line-height: 140%;&quot;&gt;&lt;font face=&quot;宋体&quot; style=&quot;font-size: 16px;&quot;&gt;教育和宣传活动可以帮助消费者理解智能座舱的功能和潜在价值，减少对新技术的疑虑。&lt;/font&gt;&lt;/p&gt;" style="text;html=1;strokeColor=none;fillColor=none;align=left;verticalAlign=middle;whiteSpace=wrap;rounded=0;" vertex="1" parent="1">
          <mxGeometry x="455" y="624" width="392" height="58" as="geometry" />
        </mxCell>
        <mxCell id="D74BTjwERHzlvlWHR8W4-20" value="&lt;font color=&quot;#000000&quot; style=&quot;font-size: 14px;&quot; face=&quot;宋体&quot;&gt;个性化交互和娱乐&lt;/font&gt;" style="whiteSpace=wrap;html=1;shape=mxgraph.basic.cloud_callout;fillColor=#b2e6f4;strokeColor=none;fontColor=#FFFFFF;fontStyle=1" vertex="1" parent="1">
          <mxGeometry x="885" y="315" width="116" height="75" as="geometry" />
        </mxCell>
        <mxCell id="D74BTjwERHzlvlWHR8W4-28" value="&lt;font color=&quot;#000000&quot; style=&quot;font-size: 14px;&quot; face=&quot;宋体&quot;&gt;情感识别以及响应&lt;/font&gt;" style="whiteSpace=wrap;html=1;shape=mxgraph.basic.cloud_callout;fillColor=#b2e6f4;strokeColor=none;fontColor=#FFFFFF;fontStyle=1" vertex="1" parent="1">
          <mxGeometry x="885" y="427" width="116" height="75" as="geometry" />
        </mxCell>
        <mxCell id="D74BTjwERHzlvlWHR8W4-29" value="&lt;font face=&quot;宋体&quot; color=&quot;#000000&quot;&gt;&lt;span style=&quot;font-size: 14px;&quot;&gt;行程轨迹的定制化&lt;/span&gt;&lt;/font&gt;" style="whiteSpace=wrap;html=1;shape=mxgraph.basic.cloud_callout;fillColor=#b2e6f4;strokeColor=none;fontColor=#FFFFFF;fontStyle=1" vertex="1" parent="1">
          <mxGeometry x="885" y="538.5" width="116" height="75" as="geometry" />
        </mxCell>
        <mxCell id="D74BTjwERHzlvlWHR8W4-30" value="&lt;font face=&quot;宋体&quot; color=&quot;#000000&quot;&gt;&lt;span style=&quot;font-size: 14px;&quot;&gt;......&lt;/span&gt;&lt;/font&gt;" style="whiteSpace=wrap;html=1;shape=mxgraph.basic.cloud_callout;fillColor=#b2e6f4;strokeColor=none;fontColor=#FFFFFF;fontStyle=1" vertex="1" parent="1">
          <mxGeometry x="885" y="641" width="116" height="75" as="geometry" />
        </mxCell>
        <mxCell id="D74BTjwERHzlvlWHR8W4-37" value="自然语言处理" style="ellipse;whiteSpace=wrap;html=1;aspect=fixed;fillColor=#fff2cc;strokeColor=#d6b656;fontColor=#000000;fontStyle=1" vertex="1" parent="1">
          <mxGeometry x="453" y="935" width="109" height="109" as="geometry" />
        </mxCell>
        <mxCell id="D74BTjwERHzlvlWHR8W4-38" value="语音识别与语音合成" style="ellipse;whiteSpace=wrap;html=1;aspect=fixed;fillColor=#ffe6cc;strokeColor=#d79b00;fontColor=#000000;fontStyle=1" vertex="1" parent="1">
          <mxGeometry x="478" y="834" width="84" height="84" as="geometry" />
        </mxCell>
        <mxCell id="D74BTjwERHzlvlWHR8W4-39" value="情感分析技术" style="ellipse;whiteSpace=wrap;html=1;aspect=fixed;fillColor=#f8cecc;strokeColor=#b85450;fontColor=#000000;fontStyle=1" vertex="1" parent="1">
          <mxGeometry x="538" y="900" width="61" height="61" as="geometry" />
        </mxCell>
        <mxCell id="D74BTjwERHzlvlWHR8W4-40" value="车联网通信技术" style="ellipse;whiteSpace=wrap;html=1;aspect=fixed;fillColor=#d5e8d4;strokeColor=#82b366;fontColor=#000000;fontStyle=1" vertex="1" parent="1">
          <mxGeometry x="611" y="998" width="99" height="99" as="geometry" />
        </mxCell>
        <mxCell id="D74BTjwERHzlvlWHR8W4-41" value="多媒体和娱乐系统" style="ellipse;whiteSpace=wrap;html=1;aspect=fixed;fillColor=#e1d5e7;strokeColor=#9673a6;fontColor=#000000;fontStyle=1" vertex="1" parent="1">
          <mxGeometry x="626" y="822" width="94" height="94" as="geometry" />
        </mxCell>
        <mxCell id="D74BTjwERHzlvlWHR8W4-44" value="" style="group" vertex="1" connectable="0" parent="1">
          <mxGeometry x="343" y="799" width="579" height="327" as="geometry" />
        </mxCell>
        <mxCell id="D74BTjwERHzlvlWHR8W4-34" value="" style="endArrow=classic;html=1;rounded=0;" edge="1" parent="D74BTjwERHzlvlWHR8W4-44" target="D74BTjwERHzlvlWHR8W4-42">
          <mxGeometry width="50" height="50" relative="1" as="geometry">
            <mxPoint x="30" y="312" as="sourcePoint" />
            <mxPoint x="357" y="312" as="targetPoint" />
          </mxGeometry>
        </mxCell>
        <mxCell id="D74BTjwERHzlvlWHR8W4-36" value="" style="endArrow=classic;html=1;rounded=0;" edge="1" parent="D74BTjwERHzlvlWHR8W4-44">
          <mxGeometry width="50" height="50" relative="1" as="geometry">
            <mxPoint x="30" y="312" as="sourcePoint" />
            <mxPoint x="30" as="targetPoint" />
          </mxGeometry>
        </mxCell>
        <mxCell id="D74BTjwERHzlvlWHR8W4-42" value="&lt;font style=&quot;font-size: 16px;&quot; face=&quot;宋体&quot;&gt;技术迭代速度&lt;/font&gt;" style="text;html=1;strokeColor=none;fillColor=none;align=center;verticalAlign=middle;whiteSpace=wrap;rounded=0;" vertex="1" parent="D74BTjwERHzlvlWHR8W4-44">
          <mxGeometry x="470" y="297" width="109" height="30" as="geometry" />
        </mxCell>
        <mxCell id="D74BTjwERHzlvlWHR8W4-43" value="&lt;font style=&quot;font-size: 16px;&quot; face=&quot;宋体&quot;&gt;技术成熟度&lt;/font&gt;" style="text;html=1;strokeColor=none;fillColor=none;align=center;verticalAlign=middle;whiteSpace=wrap;rounded=0;" vertex="1" parent="D74BTjwERHzlvlWHR8W4-44">
          <mxGeometry y="9" width="21" height="82" as="geometry" />
        </mxCell>
        <mxCell id="D74BTjwERHzlvlWHR8W4-45" value="" style="curved=1;endArrow=none;html=1;rounded=0;endFill=0;" edge="1" parent="1">
          <mxGeometry width="50" height="50" relative="1" as="geometry">
            <mxPoint x="414" y="1431" as="sourcePoint" />
            <mxPoint x="749" y="1316" as="targetPoint" />
            <Array as="points">
              <mxPoint x="526" y="1298" />
            </Array>
          </mxGeometry>
        </mxCell>
      </root>
    </mxGraphModel>
  </diagram>
</mxfile>
